%TF.GenerationSoftware,KiCad,Pcbnew,(6.0.8)*%
%TF.CreationDate,2026-02-19T19:52:22+01:00*%
%TF.ProjectId,LED_controller,4c45445f-636f-46e7-9472-6f6c6c65722e,rev?*%
%TF.SameCoordinates,Original*%
%TF.FileFunction,Drillmap*%
%TF.FilePolarity,Positive*%
%FSLAX45Y45*%
G04 Gerber Fmt 4.5, Leading zero omitted, Abs format (unit mm)*
G04 Created by KiCad (PCBNEW (6.0.8)) date 2026-02-19 19:52:22*
%MOMM*%
%LPD*%
G01*
G04 APERTURE LIST*
%ADD10C,0.200000*%
%ADD11C,0.040000*%
%ADD12C,0.090000*%
%ADD13C,0.100000*%
G04 APERTURE END LIST*
D10*
X10885400Y-8950000D02*
X15914600Y-8950000D01*
X15914600Y-8950000D02*
X15914600Y-11049000D01*
X15914600Y-11049000D02*
X10885400Y-11049000D01*
X10885400Y-11049000D02*
X10885400Y-8950000D01*
D11*
X13111800Y-10343200D02*
X13151800Y-10383200D01*
X13151800Y-10343200D02*
X13111800Y-10383200D01*
X13111800Y-10444800D02*
X13151800Y-10484800D01*
X13151800Y-10444800D02*
X13111800Y-10484800D01*
X13213400Y-10343200D02*
X13253400Y-10383200D01*
X13253400Y-10343200D02*
X13213400Y-10383200D01*
X14788200Y-10419400D02*
X14828200Y-10459400D01*
X14828200Y-10419400D02*
X14788200Y-10459400D01*
X14788200Y-10521000D02*
X14828200Y-10561000D01*
X14828200Y-10521000D02*
X14788200Y-10561000D01*
D12*
X12118200Y-9144000D02*
G75*
G03*
X12118200Y-9144000I-45000J0D01*
G01*
X12118200Y-9398000D02*
G75*
G03*
X12118200Y-9398000I-45000J0D01*
G01*
X12118200Y-9652000D02*
G75*
G03*
X12118200Y-9652000I-45000J0D01*
G01*
D13*
X11705000Y-10285000D02*
X11705000Y-10385000D01*
X11655000Y-10335000D02*
X11755000Y-10335000D01*
D10*
X11655000Y-10225000D02*
X11655000Y-10445000D01*
X11755000Y-10225000D02*
X11755000Y-10445000D01*
X11655000Y-10445000D02*
G75*
G03*
X11755000Y-10445000I50000J0D01*
G01*
X11755000Y-10225000D02*
G75*
G03*
X11655000Y-10225000I-50000J0D01*
G01*
D13*
X12045000Y-10765000D02*
X12045000Y-10865000D01*
X11995000Y-10815000D02*
X12095000Y-10815000D01*
D10*
X12155000Y-10765000D02*
X11935000Y-10765000D01*
X12155000Y-10865000D02*
X11935000Y-10865000D01*
X11935000Y-10765000D02*
G75*
G03*
X11935000Y-10865000I0J-50000D01*
G01*
X12155000Y-10865000D02*
G75*
G03*
X12155000Y-10765000I0J50000D01*
G01*
D13*
X12335000Y-10285000D02*
X12335000Y-10385000D01*
X12285000Y-10335000D02*
X12385000Y-10335000D01*
D10*
X12285000Y-10205000D02*
X12285000Y-10465000D01*
X12385000Y-10205000D02*
X12385000Y-10465000D01*
X12285000Y-10465000D02*
G75*
G03*
X12385000Y-10465000I50000J0D01*
G01*
X12385000Y-10205000D02*
G75*
G03*
X12285000Y-10205000I-50000J0D01*
G01*
D13*
X13718000Y-9118700D02*
X13718000Y-9218700D01*
X13668000Y-9168700D02*
X13768000Y-9168700D01*
X13718000Y-10818700D02*
X13718000Y-10918700D01*
X13668000Y-10868700D02*
X13768000Y-10868700D01*
X13972000Y-9118700D02*
X13972000Y-9218700D01*
X13922000Y-9168700D02*
X14022000Y-9168700D01*
X13972000Y-10818700D02*
X13972000Y-10918700D01*
X13922000Y-10868700D02*
X14022000Y-10868700D01*
X14226000Y-9118700D02*
X14226000Y-9218700D01*
X14176000Y-9168700D02*
X14276000Y-9168700D01*
X14226000Y-10818700D02*
X14226000Y-10918700D01*
X14176000Y-10868700D02*
X14276000Y-10868700D01*
X14480000Y-9118700D02*
X14480000Y-9218700D01*
X14430000Y-9168700D02*
X14530000Y-9168700D01*
X14480000Y-10818700D02*
X14480000Y-10918700D01*
X14430000Y-10868700D02*
X14530000Y-10868700D01*
X14734000Y-9118700D02*
X14734000Y-9218700D01*
X14684000Y-9168700D02*
X14784000Y-9168700D01*
X14734000Y-10818700D02*
X14734000Y-10918700D01*
X14684000Y-10868700D02*
X14784000Y-10868700D01*
X14988000Y-9118700D02*
X14988000Y-9218700D01*
X14938000Y-9168700D02*
X15038000Y-9168700D01*
X14988000Y-10818700D02*
X14988000Y-10918700D01*
X14938000Y-10868700D02*
X15038000Y-10868700D01*
X15242000Y-9118700D02*
X15242000Y-9218700D01*
X15192000Y-9168700D02*
X15292000Y-9168700D01*
X15242000Y-10818700D02*
X15242000Y-10918700D01*
X15192000Y-10868700D02*
X15292000Y-10868700D01*
X15697200Y-9449600D02*
X15697200Y-9549600D01*
X15647200Y-9499600D02*
X15747200Y-9499600D01*
X15697200Y-9703600D02*
X15697200Y-9803600D01*
X15647200Y-9753600D02*
X15747200Y-9753600D01*
X15697200Y-9957600D02*
X15697200Y-10057600D01*
X15647200Y-10007600D02*
X15747200Y-10007600D01*
X15697200Y-10211600D02*
X15697200Y-10311600D01*
X15647200Y-10261600D02*
X15747200Y-10261600D01*
X15697200Y-10465600D02*
X15697200Y-10565600D01*
X15647200Y-10515600D02*
X15747200Y-10515600D01*
D10*
X11133019Y-11369476D02*
X11133019Y-11169476D01*
X11180638Y-11169476D01*
X11209209Y-11179000D01*
X11228257Y-11198048D01*
X11237781Y-11217095D01*
X11247305Y-11255190D01*
X11247305Y-11283762D01*
X11237781Y-11321857D01*
X11228257Y-11340905D01*
X11209209Y-11359952D01*
X11180638Y-11369476D01*
X11133019Y-11369476D01*
X11333019Y-11369476D02*
X11333019Y-11236143D01*
X11333019Y-11274238D02*
X11342543Y-11255190D01*
X11352067Y-11245667D01*
X11371114Y-11236143D01*
X11390162Y-11236143D01*
X11456828Y-11369476D02*
X11456828Y-11236143D01*
X11456828Y-11169476D02*
X11447305Y-11179000D01*
X11456828Y-11188524D01*
X11466352Y-11179000D01*
X11456828Y-11169476D01*
X11456828Y-11188524D01*
X11580638Y-11369476D02*
X11561590Y-11359952D01*
X11552067Y-11340905D01*
X11552067Y-11169476D01*
X11685400Y-11369476D02*
X11666352Y-11359952D01*
X11656828Y-11340905D01*
X11656828Y-11169476D01*
X11913971Y-11369476D02*
X11913971Y-11169476D01*
X11980638Y-11312333D01*
X12047305Y-11169476D01*
X12047305Y-11369476D01*
X12228257Y-11369476D02*
X12228257Y-11264714D01*
X12218733Y-11245667D01*
X12199686Y-11236143D01*
X12161590Y-11236143D01*
X12142543Y-11245667D01*
X12228257Y-11359952D02*
X12209209Y-11369476D01*
X12161590Y-11369476D01*
X12142543Y-11359952D01*
X12133019Y-11340905D01*
X12133019Y-11321857D01*
X12142543Y-11302809D01*
X12161590Y-11293286D01*
X12209209Y-11293286D01*
X12228257Y-11283762D01*
X12323495Y-11236143D02*
X12323495Y-11436143D01*
X12323495Y-11245667D02*
X12342543Y-11236143D01*
X12380638Y-11236143D01*
X12399686Y-11245667D01*
X12409209Y-11255190D01*
X12418733Y-11274238D01*
X12418733Y-11331381D01*
X12409209Y-11350428D01*
X12399686Y-11359952D01*
X12380638Y-11369476D01*
X12342543Y-11369476D01*
X12323495Y-11359952D01*
X12504448Y-11350428D02*
X12513971Y-11359952D01*
X12504448Y-11369476D01*
X12494924Y-11359952D01*
X12504448Y-11350428D01*
X12504448Y-11369476D01*
X12504448Y-11245667D02*
X12513971Y-11255190D01*
X12504448Y-11264714D01*
X12494924Y-11255190D01*
X12504448Y-11245667D01*
X12504448Y-11264714D01*
D11*
X10835400Y-11679000D02*
X10875400Y-11719000D01*
X10875400Y-11679000D02*
X10835400Y-11719000D01*
D10*
X11171114Y-11589476D02*
X11190162Y-11589476D01*
X11209209Y-11599000D01*
X11218733Y-11608524D01*
X11228257Y-11627571D01*
X11237781Y-11665667D01*
X11237781Y-11713286D01*
X11228257Y-11751381D01*
X11218733Y-11770428D01*
X11209209Y-11779952D01*
X11190162Y-11789476D01*
X11171114Y-11789476D01*
X11152067Y-11779952D01*
X11142543Y-11770428D01*
X11133019Y-11751381D01*
X11123495Y-11713286D01*
X11123495Y-11665667D01*
X11133019Y-11627571D01*
X11142543Y-11608524D01*
X11152067Y-11599000D01*
X11171114Y-11589476D01*
X11323495Y-11770428D02*
X11333019Y-11779952D01*
X11323495Y-11789476D01*
X11313971Y-11779952D01*
X11323495Y-11770428D01*
X11323495Y-11789476D01*
X11504448Y-11656143D02*
X11504448Y-11789476D01*
X11456828Y-11579952D02*
X11409209Y-11722809D01*
X11533019Y-11722809D01*
X11647305Y-11589476D02*
X11666352Y-11589476D01*
X11685400Y-11599000D01*
X11694924Y-11608524D01*
X11704448Y-11627571D01*
X11713971Y-11665667D01*
X11713971Y-11713286D01*
X11704448Y-11751381D01*
X11694924Y-11770428D01*
X11685400Y-11779952D01*
X11666352Y-11789476D01*
X11647305Y-11789476D01*
X11628257Y-11779952D01*
X11618733Y-11770428D01*
X11609209Y-11751381D01*
X11599686Y-11713286D01*
X11599686Y-11665667D01*
X11609209Y-11627571D01*
X11618733Y-11608524D01*
X11628257Y-11599000D01*
X11647305Y-11589476D01*
X11837781Y-11589476D02*
X11856828Y-11589476D01*
X11875876Y-11599000D01*
X11885400Y-11608524D01*
X11894924Y-11627571D01*
X11904448Y-11665667D01*
X11904448Y-11713286D01*
X11894924Y-11751381D01*
X11885400Y-11770428D01*
X11875876Y-11779952D01*
X11856828Y-11789476D01*
X11837781Y-11789476D01*
X11818733Y-11779952D01*
X11809209Y-11770428D01*
X11799686Y-11751381D01*
X11790162Y-11713286D01*
X11790162Y-11665667D01*
X11799686Y-11627571D01*
X11809209Y-11608524D01*
X11818733Y-11599000D01*
X11837781Y-11589476D01*
X11990162Y-11789476D02*
X11990162Y-11656143D01*
X11990162Y-11675190D02*
X11999686Y-11665667D01*
X12018733Y-11656143D01*
X12047305Y-11656143D01*
X12066352Y-11665667D01*
X12075876Y-11684714D01*
X12075876Y-11789476D01*
X12075876Y-11684714D02*
X12085400Y-11665667D01*
X12104448Y-11656143D01*
X12133019Y-11656143D01*
X12152067Y-11665667D01*
X12161590Y-11684714D01*
X12161590Y-11789476D01*
X12256828Y-11789476D02*
X12256828Y-11656143D01*
X12256828Y-11675190D02*
X12266352Y-11665667D01*
X12285400Y-11656143D01*
X12313971Y-11656143D01*
X12333019Y-11665667D01*
X12342543Y-11684714D01*
X12342543Y-11789476D01*
X12342543Y-11684714D02*
X12352067Y-11665667D01*
X12371114Y-11656143D01*
X12399686Y-11656143D01*
X12418733Y-11665667D01*
X12428257Y-11684714D01*
X12428257Y-11789476D01*
X12818733Y-11579952D02*
X12647305Y-11837095D01*
X13075876Y-11589476D02*
X13094924Y-11589476D01*
X13113971Y-11599000D01*
X13123495Y-11608524D01*
X13133019Y-11627571D01*
X13142543Y-11665667D01*
X13142543Y-11713286D01*
X13133019Y-11751381D01*
X13123495Y-11770428D01*
X13113971Y-11779952D01*
X13094924Y-11789476D01*
X13075876Y-11789476D01*
X13056828Y-11779952D01*
X13047305Y-11770428D01*
X13037781Y-11751381D01*
X13028257Y-11713286D01*
X13028257Y-11665667D01*
X13037781Y-11627571D01*
X13047305Y-11608524D01*
X13056828Y-11599000D01*
X13075876Y-11589476D01*
X13228257Y-11770428D02*
X13237781Y-11779952D01*
X13228257Y-11789476D01*
X13218733Y-11779952D01*
X13228257Y-11770428D01*
X13228257Y-11789476D01*
X13361590Y-11589476D02*
X13380638Y-11589476D01*
X13399686Y-11599000D01*
X13409209Y-11608524D01*
X13418733Y-11627571D01*
X13428257Y-11665667D01*
X13428257Y-11713286D01*
X13418733Y-11751381D01*
X13409209Y-11770428D01*
X13399686Y-11779952D01*
X13380638Y-11789476D01*
X13361590Y-11789476D01*
X13342543Y-11779952D01*
X13333019Y-11770428D01*
X13323495Y-11751381D01*
X13313971Y-11713286D01*
X13313971Y-11665667D01*
X13323495Y-11627571D01*
X13333019Y-11608524D01*
X13342543Y-11599000D01*
X13361590Y-11589476D01*
X13618733Y-11789476D02*
X13504448Y-11789476D01*
X13561590Y-11789476D02*
X13561590Y-11589476D01*
X13542543Y-11618048D01*
X13523495Y-11637095D01*
X13504448Y-11646619D01*
X13799686Y-11589476D02*
X13704448Y-11589476D01*
X13694924Y-11684714D01*
X13704448Y-11675190D01*
X13723495Y-11665667D01*
X13771114Y-11665667D01*
X13790162Y-11675190D01*
X13799686Y-11684714D01*
X13809209Y-11703762D01*
X13809209Y-11751381D01*
X13799686Y-11770428D01*
X13790162Y-11779952D01*
X13771114Y-11789476D01*
X13723495Y-11789476D01*
X13704448Y-11779952D01*
X13694924Y-11770428D01*
X13875876Y-11589476D02*
X14009209Y-11589476D01*
X13923495Y-11789476D01*
X14075876Y-11589476D02*
X14075876Y-11627571D01*
X14152067Y-11589476D02*
X14152067Y-11627571D01*
X14447305Y-11865667D02*
X14437781Y-11856143D01*
X14418733Y-11827571D01*
X14409209Y-11808524D01*
X14399686Y-11779952D01*
X14390162Y-11732333D01*
X14390162Y-11694238D01*
X14399686Y-11646619D01*
X14409209Y-11618048D01*
X14418733Y-11599000D01*
X14437781Y-11570428D01*
X14447305Y-11560905D01*
X14618733Y-11589476D02*
X14523495Y-11589476D01*
X14513971Y-11684714D01*
X14523495Y-11675190D01*
X14542543Y-11665667D01*
X14590162Y-11665667D01*
X14609209Y-11675190D01*
X14618733Y-11684714D01*
X14628257Y-11703762D01*
X14628257Y-11751381D01*
X14618733Y-11770428D01*
X14609209Y-11779952D01*
X14590162Y-11789476D01*
X14542543Y-11789476D01*
X14523495Y-11779952D01*
X14513971Y-11770428D01*
X14866352Y-11789476D02*
X14866352Y-11589476D01*
X14952067Y-11789476D02*
X14952067Y-11684714D01*
X14942543Y-11665667D01*
X14923495Y-11656143D01*
X14894924Y-11656143D01*
X14875876Y-11665667D01*
X14866352Y-11675190D01*
X15075876Y-11789476D02*
X15056828Y-11779952D01*
X15047305Y-11770428D01*
X15037781Y-11751381D01*
X15037781Y-11694238D01*
X15047305Y-11675190D01*
X15056828Y-11665667D01*
X15075876Y-11656143D01*
X15104448Y-11656143D01*
X15123495Y-11665667D01*
X15133019Y-11675190D01*
X15142543Y-11694238D01*
X15142543Y-11751381D01*
X15133019Y-11770428D01*
X15123495Y-11779952D01*
X15104448Y-11789476D01*
X15075876Y-11789476D01*
X15256828Y-11789476D02*
X15237781Y-11779952D01*
X15228257Y-11760905D01*
X15228257Y-11589476D01*
X15409209Y-11779952D02*
X15390162Y-11789476D01*
X15352067Y-11789476D01*
X15333019Y-11779952D01*
X15323495Y-11760905D01*
X15323495Y-11684714D01*
X15333019Y-11665667D01*
X15352067Y-11656143D01*
X15390162Y-11656143D01*
X15409209Y-11665667D01*
X15418733Y-11684714D01*
X15418733Y-11703762D01*
X15323495Y-11722809D01*
X15494924Y-11779952D02*
X15513971Y-11789476D01*
X15552067Y-11789476D01*
X15571114Y-11779952D01*
X15580638Y-11760905D01*
X15580638Y-11751381D01*
X15571114Y-11732333D01*
X15552067Y-11722809D01*
X15523495Y-11722809D01*
X15504448Y-11713286D01*
X15494924Y-11694238D01*
X15494924Y-11684714D01*
X15504448Y-11665667D01*
X15523495Y-11656143D01*
X15552067Y-11656143D01*
X15571114Y-11665667D01*
X15647305Y-11865667D02*
X15656828Y-11856143D01*
X15675876Y-11827571D01*
X15685400Y-11808524D01*
X15694924Y-11779952D01*
X15704448Y-11732333D01*
X15704448Y-11694238D01*
X15694924Y-11646619D01*
X15685400Y-11618048D01*
X15675876Y-11599000D01*
X15656828Y-11570428D01*
X15647305Y-11560905D01*
D12*
X10875400Y-11963000D02*
G75*
G03*
X10875400Y-11963000I-45000J0D01*
G01*
D10*
X11171114Y-11853476D02*
X11190162Y-11853476D01*
X11209209Y-11863000D01*
X11218733Y-11872524D01*
X11228257Y-11891571D01*
X11237781Y-11929667D01*
X11237781Y-11977286D01*
X11228257Y-12015381D01*
X11218733Y-12034428D01*
X11209209Y-12043952D01*
X11190162Y-12053476D01*
X11171114Y-12053476D01*
X11152067Y-12043952D01*
X11142543Y-12034428D01*
X11133019Y-12015381D01*
X11123495Y-11977286D01*
X11123495Y-11929667D01*
X11133019Y-11891571D01*
X11142543Y-11872524D01*
X11152067Y-11863000D01*
X11171114Y-11853476D01*
X11323495Y-12034428D02*
X11333019Y-12043952D01*
X11323495Y-12053476D01*
X11313971Y-12043952D01*
X11323495Y-12034428D01*
X11323495Y-12053476D01*
X11428257Y-12053476D02*
X11466352Y-12053476D01*
X11485400Y-12043952D01*
X11494924Y-12034428D01*
X11513971Y-12005857D01*
X11523495Y-11967762D01*
X11523495Y-11891571D01*
X11513971Y-11872524D01*
X11504448Y-11863000D01*
X11485400Y-11853476D01*
X11447305Y-11853476D01*
X11428257Y-11863000D01*
X11418733Y-11872524D01*
X11409209Y-11891571D01*
X11409209Y-11939190D01*
X11418733Y-11958238D01*
X11428257Y-11967762D01*
X11447305Y-11977286D01*
X11485400Y-11977286D01*
X11504448Y-11967762D01*
X11513971Y-11958238D01*
X11523495Y-11939190D01*
X11647305Y-11853476D02*
X11666352Y-11853476D01*
X11685400Y-11863000D01*
X11694924Y-11872524D01*
X11704448Y-11891571D01*
X11713971Y-11929667D01*
X11713971Y-11977286D01*
X11704448Y-12015381D01*
X11694924Y-12034428D01*
X11685400Y-12043952D01*
X11666352Y-12053476D01*
X11647305Y-12053476D01*
X11628257Y-12043952D01*
X11618733Y-12034428D01*
X11609209Y-12015381D01*
X11599686Y-11977286D01*
X11599686Y-11929667D01*
X11609209Y-11891571D01*
X11618733Y-11872524D01*
X11628257Y-11863000D01*
X11647305Y-11853476D01*
X11837781Y-11853476D02*
X11856828Y-11853476D01*
X11875876Y-11863000D01*
X11885400Y-11872524D01*
X11894924Y-11891571D01*
X11904448Y-11929667D01*
X11904448Y-11977286D01*
X11894924Y-12015381D01*
X11885400Y-12034428D01*
X11875876Y-12043952D01*
X11856828Y-12053476D01*
X11837781Y-12053476D01*
X11818733Y-12043952D01*
X11809209Y-12034428D01*
X11799686Y-12015381D01*
X11790162Y-11977286D01*
X11790162Y-11929667D01*
X11799686Y-11891571D01*
X11809209Y-11872524D01*
X11818733Y-11863000D01*
X11837781Y-11853476D01*
X11990162Y-12053476D02*
X11990162Y-11920143D01*
X11990162Y-11939190D02*
X11999686Y-11929667D01*
X12018733Y-11920143D01*
X12047305Y-11920143D01*
X12066352Y-11929667D01*
X12075876Y-11948714D01*
X12075876Y-12053476D01*
X12075876Y-11948714D02*
X12085400Y-11929667D01*
X12104448Y-11920143D01*
X12133019Y-11920143D01*
X12152067Y-11929667D01*
X12161590Y-11948714D01*
X12161590Y-12053476D01*
X12256828Y-12053476D02*
X12256828Y-11920143D01*
X12256828Y-11939190D02*
X12266352Y-11929667D01*
X12285400Y-11920143D01*
X12313971Y-11920143D01*
X12333019Y-11929667D01*
X12342543Y-11948714D01*
X12342543Y-12053476D01*
X12342543Y-11948714D02*
X12352067Y-11929667D01*
X12371114Y-11920143D01*
X12399686Y-11920143D01*
X12418733Y-11929667D01*
X12428257Y-11948714D01*
X12428257Y-12053476D01*
X12818733Y-11843952D02*
X12647305Y-12101095D01*
X13075876Y-11853476D02*
X13094924Y-11853476D01*
X13113971Y-11863000D01*
X13123495Y-11872524D01*
X13133019Y-11891571D01*
X13142543Y-11929667D01*
X13142543Y-11977286D01*
X13133019Y-12015381D01*
X13123495Y-12034428D01*
X13113971Y-12043952D01*
X13094924Y-12053476D01*
X13075876Y-12053476D01*
X13056828Y-12043952D01*
X13047305Y-12034428D01*
X13037781Y-12015381D01*
X13028257Y-11977286D01*
X13028257Y-11929667D01*
X13037781Y-11891571D01*
X13047305Y-11872524D01*
X13056828Y-11863000D01*
X13075876Y-11853476D01*
X13228257Y-12034428D02*
X13237781Y-12043952D01*
X13228257Y-12053476D01*
X13218733Y-12043952D01*
X13228257Y-12034428D01*
X13228257Y-12053476D01*
X13361590Y-11853476D02*
X13380638Y-11853476D01*
X13399686Y-11863000D01*
X13409209Y-11872524D01*
X13418733Y-11891571D01*
X13428257Y-11929667D01*
X13428257Y-11977286D01*
X13418733Y-12015381D01*
X13409209Y-12034428D01*
X13399686Y-12043952D01*
X13380638Y-12053476D01*
X13361590Y-12053476D01*
X13342543Y-12043952D01*
X13333019Y-12034428D01*
X13323495Y-12015381D01*
X13313971Y-11977286D01*
X13313971Y-11929667D01*
X13323495Y-11891571D01*
X13333019Y-11872524D01*
X13342543Y-11863000D01*
X13361590Y-11853476D01*
X13494924Y-11853476D02*
X13618733Y-11853476D01*
X13552067Y-11929667D01*
X13580638Y-11929667D01*
X13599686Y-11939190D01*
X13609209Y-11948714D01*
X13618733Y-11967762D01*
X13618733Y-12015381D01*
X13609209Y-12034428D01*
X13599686Y-12043952D01*
X13580638Y-12053476D01*
X13523495Y-12053476D01*
X13504448Y-12043952D01*
X13494924Y-12034428D01*
X13799686Y-11853476D02*
X13704448Y-11853476D01*
X13694924Y-11948714D01*
X13704448Y-11939190D01*
X13723495Y-11929667D01*
X13771114Y-11929667D01*
X13790162Y-11939190D01*
X13799686Y-11948714D01*
X13809209Y-11967762D01*
X13809209Y-12015381D01*
X13799686Y-12034428D01*
X13790162Y-12043952D01*
X13771114Y-12053476D01*
X13723495Y-12053476D01*
X13704448Y-12043952D01*
X13694924Y-12034428D01*
X13980638Y-11920143D02*
X13980638Y-12053476D01*
X13933019Y-11843952D02*
X13885400Y-11986809D01*
X14009209Y-11986809D01*
X14075876Y-11853476D02*
X14075876Y-11891571D01*
X14152067Y-11853476D02*
X14152067Y-11891571D01*
X14447305Y-12129667D02*
X14437781Y-12120143D01*
X14418733Y-12091571D01*
X14409209Y-12072524D01*
X14399686Y-12043952D01*
X14390162Y-11996333D01*
X14390162Y-11958238D01*
X14399686Y-11910619D01*
X14409209Y-11882048D01*
X14418733Y-11863000D01*
X14437781Y-11834428D01*
X14447305Y-11824905D01*
X14504448Y-11853476D02*
X14628257Y-11853476D01*
X14561590Y-11929667D01*
X14590162Y-11929667D01*
X14609209Y-11939190D01*
X14618733Y-11948714D01*
X14628257Y-11967762D01*
X14628257Y-12015381D01*
X14618733Y-12034428D01*
X14609209Y-12043952D01*
X14590162Y-12053476D01*
X14533019Y-12053476D01*
X14513971Y-12043952D01*
X14504448Y-12034428D01*
X14866352Y-12053476D02*
X14866352Y-11853476D01*
X14952067Y-12053476D02*
X14952067Y-11948714D01*
X14942543Y-11929667D01*
X14923495Y-11920143D01*
X14894924Y-11920143D01*
X14875876Y-11929667D01*
X14866352Y-11939190D01*
X15075876Y-12053476D02*
X15056828Y-12043952D01*
X15047305Y-12034428D01*
X15037781Y-12015381D01*
X15037781Y-11958238D01*
X15047305Y-11939190D01*
X15056828Y-11929667D01*
X15075876Y-11920143D01*
X15104448Y-11920143D01*
X15123495Y-11929667D01*
X15133019Y-11939190D01*
X15142543Y-11958238D01*
X15142543Y-12015381D01*
X15133019Y-12034428D01*
X15123495Y-12043952D01*
X15104448Y-12053476D01*
X15075876Y-12053476D01*
X15256828Y-12053476D02*
X15237781Y-12043952D01*
X15228257Y-12024905D01*
X15228257Y-11853476D01*
X15409209Y-12043952D02*
X15390162Y-12053476D01*
X15352067Y-12053476D01*
X15333019Y-12043952D01*
X15323495Y-12024905D01*
X15323495Y-11948714D01*
X15333019Y-11929667D01*
X15352067Y-11920143D01*
X15390162Y-11920143D01*
X15409209Y-11929667D01*
X15418733Y-11948714D01*
X15418733Y-11967762D01*
X15323495Y-11986809D01*
X15494924Y-12043952D02*
X15513971Y-12053476D01*
X15552067Y-12053476D01*
X15571114Y-12043952D01*
X15580638Y-12024905D01*
X15580638Y-12015381D01*
X15571114Y-11996333D01*
X15552067Y-11986809D01*
X15523495Y-11986809D01*
X15504448Y-11977286D01*
X15494924Y-11958238D01*
X15494924Y-11948714D01*
X15504448Y-11929667D01*
X15523495Y-11920143D01*
X15552067Y-11920143D01*
X15571114Y-11929667D01*
X15647305Y-12129667D02*
X15656828Y-12120143D01*
X15675876Y-12091571D01*
X15685400Y-12072524D01*
X15694924Y-12043952D01*
X15704448Y-11996333D01*
X15704448Y-11958238D01*
X15694924Y-11910619D01*
X15685400Y-11882048D01*
X15675876Y-11863000D01*
X15656828Y-11834428D01*
X15647305Y-11824905D01*
D13*
X10825400Y-12177000D02*
X10825400Y-12277000D01*
X10775400Y-12227000D02*
X10875400Y-12227000D01*
D10*
X11237781Y-12317476D02*
X11123495Y-12317476D01*
X11180638Y-12317476D02*
X11180638Y-12117476D01*
X11161590Y-12146048D01*
X11142543Y-12165095D01*
X11123495Y-12174619D01*
X11323495Y-12298428D02*
X11333019Y-12307952D01*
X11323495Y-12317476D01*
X11313971Y-12307952D01*
X11323495Y-12298428D01*
X11323495Y-12317476D01*
X11456828Y-12117476D02*
X11475876Y-12117476D01*
X11494924Y-12127000D01*
X11504448Y-12136524D01*
X11513971Y-12155571D01*
X11523495Y-12193667D01*
X11523495Y-12241286D01*
X11513971Y-12279381D01*
X11504448Y-12298428D01*
X11494924Y-12307952D01*
X11475876Y-12317476D01*
X11456828Y-12317476D01*
X11437781Y-12307952D01*
X11428257Y-12298428D01*
X11418733Y-12279381D01*
X11409209Y-12241286D01*
X11409209Y-12193667D01*
X11418733Y-12155571D01*
X11428257Y-12136524D01*
X11437781Y-12127000D01*
X11456828Y-12117476D01*
X11647305Y-12117476D02*
X11666352Y-12117476D01*
X11685400Y-12127000D01*
X11694924Y-12136524D01*
X11704448Y-12155571D01*
X11713971Y-12193667D01*
X11713971Y-12241286D01*
X11704448Y-12279381D01*
X11694924Y-12298428D01*
X11685400Y-12307952D01*
X11666352Y-12317476D01*
X11647305Y-12317476D01*
X11628257Y-12307952D01*
X11618733Y-12298428D01*
X11609209Y-12279381D01*
X11599686Y-12241286D01*
X11599686Y-12193667D01*
X11609209Y-12155571D01*
X11618733Y-12136524D01*
X11628257Y-12127000D01*
X11647305Y-12117476D01*
X11837781Y-12117476D02*
X11856828Y-12117476D01*
X11875876Y-12127000D01*
X11885400Y-12136524D01*
X11894924Y-12155571D01*
X11904448Y-12193667D01*
X11904448Y-12241286D01*
X11894924Y-12279381D01*
X11885400Y-12298428D01*
X11875876Y-12307952D01*
X11856828Y-12317476D01*
X11837781Y-12317476D01*
X11818733Y-12307952D01*
X11809209Y-12298428D01*
X11799686Y-12279381D01*
X11790162Y-12241286D01*
X11790162Y-12193667D01*
X11799686Y-12155571D01*
X11809209Y-12136524D01*
X11818733Y-12127000D01*
X11837781Y-12117476D01*
X11990162Y-12317476D02*
X11990162Y-12184143D01*
X11990162Y-12203190D02*
X11999686Y-12193667D01*
X12018733Y-12184143D01*
X12047305Y-12184143D01*
X12066352Y-12193667D01*
X12075876Y-12212714D01*
X12075876Y-12317476D01*
X12075876Y-12212714D02*
X12085400Y-12193667D01*
X12104448Y-12184143D01*
X12133019Y-12184143D01*
X12152067Y-12193667D01*
X12161590Y-12212714D01*
X12161590Y-12317476D01*
X12256828Y-12317476D02*
X12256828Y-12184143D01*
X12256828Y-12203190D02*
X12266352Y-12193667D01*
X12285400Y-12184143D01*
X12313971Y-12184143D01*
X12333019Y-12193667D01*
X12342543Y-12212714D01*
X12342543Y-12317476D01*
X12342543Y-12212714D02*
X12352067Y-12193667D01*
X12371114Y-12184143D01*
X12399686Y-12184143D01*
X12418733Y-12193667D01*
X12428257Y-12212714D01*
X12428257Y-12317476D01*
X12818733Y-12107952D02*
X12647305Y-12365095D01*
X13075876Y-12117476D02*
X13094924Y-12117476D01*
X13113971Y-12127000D01*
X13123495Y-12136524D01*
X13133019Y-12155571D01*
X13142543Y-12193667D01*
X13142543Y-12241286D01*
X13133019Y-12279381D01*
X13123495Y-12298428D01*
X13113971Y-12307952D01*
X13094924Y-12317476D01*
X13075876Y-12317476D01*
X13056828Y-12307952D01*
X13047305Y-12298428D01*
X13037781Y-12279381D01*
X13028257Y-12241286D01*
X13028257Y-12193667D01*
X13037781Y-12155571D01*
X13047305Y-12136524D01*
X13056828Y-12127000D01*
X13075876Y-12117476D01*
X13228257Y-12298428D02*
X13237781Y-12307952D01*
X13228257Y-12317476D01*
X13218733Y-12307952D01*
X13228257Y-12298428D01*
X13228257Y-12317476D01*
X13361590Y-12117476D02*
X13380638Y-12117476D01*
X13399686Y-12127000D01*
X13409209Y-12136524D01*
X13418733Y-12155571D01*
X13428257Y-12193667D01*
X13428257Y-12241286D01*
X13418733Y-12279381D01*
X13409209Y-12298428D01*
X13399686Y-12307952D01*
X13380638Y-12317476D01*
X13361590Y-12317476D01*
X13342543Y-12307952D01*
X13333019Y-12298428D01*
X13323495Y-12279381D01*
X13313971Y-12241286D01*
X13313971Y-12193667D01*
X13323495Y-12155571D01*
X13333019Y-12136524D01*
X13342543Y-12127000D01*
X13361590Y-12117476D01*
X13494924Y-12117476D02*
X13618733Y-12117476D01*
X13552067Y-12193667D01*
X13580638Y-12193667D01*
X13599686Y-12203190D01*
X13609209Y-12212714D01*
X13618733Y-12231762D01*
X13618733Y-12279381D01*
X13609209Y-12298428D01*
X13599686Y-12307952D01*
X13580638Y-12317476D01*
X13523495Y-12317476D01*
X13504448Y-12307952D01*
X13494924Y-12298428D01*
X13713971Y-12317476D02*
X13752067Y-12317476D01*
X13771114Y-12307952D01*
X13780638Y-12298428D01*
X13799686Y-12269857D01*
X13809209Y-12231762D01*
X13809209Y-12155571D01*
X13799686Y-12136524D01*
X13790162Y-12127000D01*
X13771114Y-12117476D01*
X13733019Y-12117476D01*
X13713971Y-12127000D01*
X13704448Y-12136524D01*
X13694924Y-12155571D01*
X13694924Y-12203190D01*
X13704448Y-12222238D01*
X13713971Y-12231762D01*
X13733019Y-12241286D01*
X13771114Y-12241286D01*
X13790162Y-12231762D01*
X13799686Y-12222238D01*
X13809209Y-12203190D01*
X13980638Y-12184143D02*
X13980638Y-12317476D01*
X13933019Y-12107952D02*
X13885400Y-12250809D01*
X14009209Y-12250809D01*
X14075876Y-12117476D02*
X14075876Y-12155571D01*
X14152067Y-12117476D02*
X14152067Y-12155571D01*
X14447305Y-12393667D02*
X14437781Y-12384143D01*
X14418733Y-12355571D01*
X14409209Y-12336524D01*
X14399686Y-12307952D01*
X14390162Y-12260333D01*
X14390162Y-12222238D01*
X14399686Y-12174619D01*
X14409209Y-12146048D01*
X14418733Y-12127000D01*
X14437781Y-12098428D01*
X14447305Y-12088905D01*
X14628257Y-12317476D02*
X14513971Y-12317476D01*
X14571114Y-12317476D02*
X14571114Y-12117476D01*
X14552067Y-12146048D01*
X14533019Y-12165095D01*
X14513971Y-12174619D01*
X14723495Y-12317476D02*
X14761590Y-12317476D01*
X14780638Y-12307952D01*
X14790162Y-12298428D01*
X14809209Y-12269857D01*
X14818733Y-12231762D01*
X14818733Y-12155571D01*
X14809209Y-12136524D01*
X14799686Y-12127000D01*
X14780638Y-12117476D01*
X14742543Y-12117476D01*
X14723495Y-12127000D01*
X14713971Y-12136524D01*
X14704448Y-12155571D01*
X14704448Y-12203190D01*
X14713971Y-12222238D01*
X14723495Y-12231762D01*
X14742543Y-12241286D01*
X14780638Y-12241286D01*
X14799686Y-12231762D01*
X14809209Y-12222238D01*
X14818733Y-12203190D01*
X15056828Y-12317476D02*
X15056828Y-12117476D01*
X15142543Y-12317476D02*
X15142543Y-12212714D01*
X15133019Y-12193667D01*
X15113971Y-12184143D01*
X15085400Y-12184143D01*
X15066352Y-12193667D01*
X15056828Y-12203190D01*
X15266352Y-12317476D02*
X15247305Y-12307952D01*
X15237781Y-12298428D01*
X15228257Y-12279381D01*
X15228257Y-12222238D01*
X15237781Y-12203190D01*
X15247305Y-12193667D01*
X15266352Y-12184143D01*
X15294924Y-12184143D01*
X15313971Y-12193667D01*
X15323495Y-12203190D01*
X15333019Y-12222238D01*
X15333019Y-12279381D01*
X15323495Y-12298428D01*
X15313971Y-12307952D01*
X15294924Y-12317476D01*
X15266352Y-12317476D01*
X15447305Y-12317476D02*
X15428257Y-12307952D01*
X15418733Y-12288905D01*
X15418733Y-12117476D01*
X15599686Y-12307952D02*
X15580638Y-12317476D01*
X15542543Y-12317476D01*
X15523495Y-12307952D01*
X15513971Y-12288905D01*
X15513971Y-12212714D01*
X15523495Y-12193667D01*
X15542543Y-12184143D01*
X15580638Y-12184143D01*
X15599686Y-12193667D01*
X15609209Y-12212714D01*
X15609209Y-12231762D01*
X15513971Y-12250809D01*
X15685400Y-12307952D02*
X15704448Y-12317476D01*
X15742543Y-12317476D01*
X15761590Y-12307952D01*
X15771114Y-12288905D01*
X15771114Y-12279381D01*
X15761590Y-12260333D01*
X15742543Y-12250809D01*
X15713971Y-12250809D01*
X15694924Y-12241286D01*
X15685400Y-12222238D01*
X15685400Y-12212714D01*
X15694924Y-12193667D01*
X15713971Y-12184143D01*
X15742543Y-12184143D01*
X15761590Y-12193667D01*
X16009209Y-12241286D02*
X16161590Y-12241286D01*
X16085400Y-12317476D02*
X16085400Y-12165095D01*
X16390162Y-12117476D02*
X16513971Y-12117476D01*
X16447305Y-12193667D01*
X16475876Y-12193667D01*
X16494924Y-12203190D01*
X16504448Y-12212714D01*
X16513971Y-12231762D01*
X16513971Y-12279381D01*
X16504448Y-12298428D01*
X16494924Y-12307952D01*
X16475876Y-12317476D01*
X16418733Y-12317476D01*
X16399686Y-12307952D01*
X16390162Y-12298428D01*
X16742543Y-12307952D02*
X16761590Y-12317476D01*
X16799686Y-12317476D01*
X16818733Y-12307952D01*
X16828257Y-12288905D01*
X16828257Y-12279381D01*
X16818733Y-12260333D01*
X16799686Y-12250809D01*
X16771114Y-12250809D01*
X16752067Y-12241286D01*
X16742543Y-12222238D01*
X16742543Y-12212714D01*
X16752067Y-12193667D01*
X16771114Y-12184143D01*
X16799686Y-12184143D01*
X16818733Y-12193667D01*
X16942543Y-12317476D02*
X16923495Y-12307952D01*
X16913971Y-12288905D01*
X16913971Y-12117476D01*
X17047305Y-12317476D02*
X17028257Y-12307952D01*
X17018733Y-12298428D01*
X17009210Y-12279381D01*
X17009210Y-12222238D01*
X17018733Y-12203190D01*
X17028257Y-12193667D01*
X17047305Y-12184143D01*
X17075876Y-12184143D01*
X17094924Y-12193667D01*
X17104448Y-12203190D01*
X17113971Y-12222238D01*
X17113971Y-12279381D01*
X17104448Y-12298428D01*
X17094924Y-12307952D01*
X17075876Y-12317476D01*
X17047305Y-12317476D01*
X17171114Y-12184143D02*
X17247305Y-12184143D01*
X17199686Y-12117476D02*
X17199686Y-12288905D01*
X17209210Y-12307952D01*
X17228257Y-12317476D01*
X17247305Y-12317476D01*
X17304448Y-12307952D02*
X17323495Y-12317476D01*
X17361590Y-12317476D01*
X17380638Y-12307952D01*
X17390162Y-12288905D01*
X17390162Y-12279381D01*
X17380638Y-12260333D01*
X17361590Y-12250809D01*
X17333019Y-12250809D01*
X17313971Y-12241286D01*
X17304448Y-12222238D01*
X17304448Y-12212714D01*
X17313971Y-12193667D01*
X17333019Y-12184143D01*
X17361590Y-12184143D01*
X17380638Y-12193667D01*
X17456829Y-12393667D02*
X17466352Y-12384143D01*
X17485400Y-12355571D01*
X17494924Y-12336524D01*
X17504448Y-12307952D01*
X17513971Y-12260333D01*
X17513971Y-12222238D01*
X17504448Y-12174619D01*
X17494924Y-12146048D01*
X17485400Y-12127000D01*
X17466352Y-12098428D01*
X17456829Y-12088905D01*
M02*
