M48
; DRILL file {KiCad (6.0.8)} date Thu Feb 19 19:52:21 2026
; FORMAT={-:-/ absolute / metric / decimal}
; #@! TF.CreationDate,2026-02-19T19:52:21+01:00
; #@! TF.GenerationSoftware,Kicad,Pcbnew,(6.0.8)
; #@! TF.FileFunction,Plated,1,2,PTH
FMAT,2
METRIC
; #@! TA.AperFunction,Plated,PTH,ViaDrill
T1C0.400
; #@! TA.AperFunction,Plated,PTH,ComponentDrill
T2C0.900
; #@! TA.AperFunction,Plated,PTH,ComponentDrill
T3C1.000
%
G90
G05
T1
X131.318Y-103.632
X131.318Y-104.648
X132.334Y-103.632
X148.082Y-104.394
X148.082Y-105.41
T2
X120.732Y-91.44
X120.732Y-93.98
X120.732Y-96.52
T3
X137.18Y-91.687
X137.18Y-108.687
X139.72Y-91.687
X139.72Y-108.687
X142.26Y-91.687
X142.26Y-108.687
X144.8Y-91.687
X144.8Y-108.687
X147.34Y-91.687
X147.34Y-108.687
X149.88Y-91.687
X149.88Y-108.687
X152.42Y-91.687
X152.42Y-108.687
X156.972Y-94.996
X156.972Y-97.536
X156.972Y-100.076
X156.972Y-102.616
X156.972Y-105.156
T3
G00X117.05Y-102.25
M15
G01X117.05Y-104.45
M16
G05
G00X121.55Y-108.15
M15
G01X119.35Y-108.15
M16
G05
G00X123.35Y-102.05
M15
G01X123.35Y-104.65
M16
G05
T0
M30
