%TF.GenerationSoftware,KiCad,Pcbnew,(6.0.8)*%
%TF.CreationDate,2026-02-19T19:52:22+01:00*%
%TF.ProjectId,LED_controller,4c45445f-636f-46e7-9472-6f6c6c65722e,rev?*%
%TF.SameCoordinates,Original*%
%TF.FileFunction,Drillmap*%
%TF.FilePolarity,Positive*%
%FSLAX45Y45*%
G04 Gerber Fmt 4.5, Leading zero omitted, Abs format (unit mm)*
G04 Created by KiCad (PCBNEW (6.0.8)) date 2026-02-19 19:52:22*
%MOMM*%
%LPD*%
G01*
G04 APERTURE LIST*
%ADD10C,0.200000*%
G04 APERTURE END LIST*
D10*
X10885400Y-8950000D02*
X15914600Y-8950000D01*
X15914600Y-8950000D02*
X15914600Y-11049000D01*
X15914600Y-11049000D02*
X10885400Y-11049000D01*
X10885400Y-11049000D02*
X10885400Y-8950000D01*
X11133019Y-11369476D02*
X11133019Y-11169476D01*
X11180638Y-11169476D01*
X11209209Y-11179000D01*
X11228257Y-11198048D01*
X11237781Y-11217095D01*
X11247305Y-11255190D01*
X11247305Y-11283762D01*
X11237781Y-11321857D01*
X11228257Y-11340905D01*
X11209209Y-11359952D01*
X11180638Y-11369476D01*
X11133019Y-11369476D01*
X11333019Y-11369476D02*
X11333019Y-11236143D01*
X11333019Y-11274238D02*
X11342543Y-11255190D01*
X11352067Y-11245667D01*
X11371114Y-11236143D01*
X11390162Y-11236143D01*
X11456828Y-11369476D02*
X11456828Y-11236143D01*
X11456828Y-11169476D02*
X11447305Y-11179000D01*
X11456828Y-11188524D01*
X11466352Y-11179000D01*
X11456828Y-11169476D01*
X11456828Y-11188524D01*
X11580638Y-11369476D02*
X11561590Y-11359952D01*
X11552067Y-11340905D01*
X11552067Y-11169476D01*
X11685400Y-11369476D02*
X11666352Y-11359952D01*
X11656828Y-11340905D01*
X11656828Y-11169476D01*
X11913971Y-11369476D02*
X11913971Y-11169476D01*
X11980638Y-11312333D01*
X12047305Y-11169476D01*
X12047305Y-11369476D01*
X12228257Y-11369476D02*
X12228257Y-11264714D01*
X12218733Y-11245667D01*
X12199686Y-11236143D01*
X12161590Y-11236143D01*
X12142543Y-11245667D01*
X12228257Y-11359952D02*
X12209209Y-11369476D01*
X12161590Y-11369476D01*
X12142543Y-11359952D01*
X12133019Y-11340905D01*
X12133019Y-11321857D01*
X12142543Y-11302809D01*
X12161590Y-11293286D01*
X12209209Y-11293286D01*
X12228257Y-11283762D01*
X12323495Y-11236143D02*
X12323495Y-11436143D01*
X12323495Y-11245667D02*
X12342543Y-11236143D01*
X12380638Y-11236143D01*
X12399686Y-11245667D01*
X12409209Y-11255190D01*
X12418733Y-11274238D01*
X12418733Y-11331381D01*
X12409209Y-11350428D01*
X12399686Y-11359952D01*
X12380638Y-11369476D01*
X12342543Y-11369476D01*
X12323495Y-11359952D01*
X12504448Y-11350428D02*
X12513971Y-11359952D01*
X12504448Y-11369476D01*
X12494924Y-11359952D01*
X12504448Y-11350428D01*
X12504448Y-11369476D01*
X12504448Y-11245667D02*
X12513971Y-11255190D01*
X12504448Y-11264714D01*
X12494924Y-11255190D01*
X12504448Y-11245667D01*
X12504448Y-11264714D01*
M02*
